<mxfile host="Electron" agent="Mozilla/5.0 (Windows NT 10.0; Win64; x64) AppleWebKit/537.36 (KHTML, like Gecko) draw.io/27.0.9 Chrome/134.0.6998.205 Electron/35.4.0 Safari/537.36" version="27.0.9">
  <diagram name="Strona-1" id="B7fbkg1D3xrfu2yz_BCO">
    <mxGraphModel dx="983" dy="586" grid="1" gridSize="10" guides="1" tooltips="1" connect="1" arrows="1" fold="1" page="1" pageScale="1" pageWidth="827" pageHeight="1169" math="0" shadow="0">
      <root>
        <mxCell id="0" />
        <mxCell id="1" parent="0" />
        <mxCell id="XRNj7C76H1mvE_7QBpQn-37" value="" style="rounded=0;whiteSpace=wrap;html=1;dashed=1;" vertex="1" parent="1">
          <mxGeometry x="120" y="600" width="560" height="120" as="geometry" />
        </mxCell>
        <mxCell id="XRNj7C76H1mvE_7QBpQn-41" style="edgeStyle=orthogonalEdgeStyle;rounded=0;orthogonalLoop=1;jettySize=auto;html=1;exitX=0.5;exitY=1;exitDx=0;exitDy=0;entryX=0.75;entryY=0;entryDx=0;entryDy=0;" edge="1" parent="1" source="XRNj7C76H1mvE_7QBpQn-35" target="XRNj7C76H1mvE_7QBpQn-37">
          <mxGeometry relative="1" as="geometry" />
        </mxCell>
        <mxCell id="XRNj7C76H1mvE_7QBpQn-35" value="" style="rounded=0;whiteSpace=wrap;html=1;dashed=1;" vertex="1" parent="1">
          <mxGeometry x="400" y="200" width="280" height="360" as="geometry" />
        </mxCell>
        <mxCell id="XRNj7C76H1mvE_7QBpQn-33" value="" style="rounded=0;whiteSpace=wrap;html=1;dashed=1;" vertex="1" parent="1">
          <mxGeometry x="120" y="200" width="200" height="360" as="geometry" />
        </mxCell>
        <mxCell id="XRNj7C76H1mvE_7QBpQn-31" style="edgeStyle=orthogonalEdgeStyle;rounded=0;orthogonalLoop=1;jettySize=auto;html=1;exitX=0.5;exitY=0;exitDx=0;exitDy=0;entryX=0.5;entryY=1;entryDx=0;entryDy=0;" edge="1" parent="1" source="XRNj7C76H1mvE_7QBpQn-1" target="XRNj7C76H1mvE_7QBpQn-2">
          <mxGeometry relative="1" as="geometry" />
        </mxCell>
        <mxCell id="XRNj7C76H1mvE_7QBpQn-1" value="API" style="rounded=0;whiteSpace=wrap;html=1;fillColor=#fad7ac;strokeColor=#b46504;" vertex="1" parent="1">
          <mxGeometry x="520" y="440" width="120" height="40" as="geometry" />
        </mxCell>
        <mxCell id="XRNj7C76H1mvE_7QBpQn-22" style="edgeStyle=orthogonalEdgeStyle;rounded=0;orthogonalLoop=1;jettySize=auto;html=1;exitX=0;exitY=0.5;exitDx=0;exitDy=0;entryX=1;entryY=0.5;entryDx=0;entryDy=0;" edge="1" parent="1" source="XRNj7C76H1mvE_7QBpQn-2" target="XRNj7C76H1mvE_7QBpQn-4">
          <mxGeometry relative="1" as="geometry" />
        </mxCell>
        <mxCell id="XRNj7C76H1mvE_7QBpQn-32" style="edgeStyle=orthogonalEdgeStyle;rounded=0;orthogonalLoop=1;jettySize=auto;html=1;exitX=0.5;exitY=0;exitDx=0;exitDy=0;entryX=0.5;entryY=1;entryDx=0;entryDy=0;" edge="1" parent="1" source="XRNj7C76H1mvE_7QBpQn-2" target="XRNj7C76H1mvE_7QBpQn-3">
          <mxGeometry relative="1" as="geometry" />
        </mxCell>
        <mxCell id="XRNj7C76H1mvE_7QBpQn-2" value="Application" style="rounded=0;whiteSpace=wrap;html=1;fillColor=#fad7ac;strokeColor=#b46504;" vertex="1" parent="1">
          <mxGeometry x="520" y="360" width="120" height="40" as="geometry" />
        </mxCell>
        <mxCell id="XRNj7C76H1mvE_7QBpQn-3" value="Domain" style="rounded=0;whiteSpace=wrap;html=1;fillColor=#fad7ac;strokeColor=#b46504;" vertex="1" parent="1">
          <mxGeometry x="520" y="280" width="120" height="40" as="geometry" />
        </mxCell>
        <mxCell id="XRNj7C76H1mvE_7QBpQn-4" value="Infrastructure" style="rounded=0;whiteSpace=wrap;html=1;textDirection=vertical-lr;fillColor=#ffe6cc;strokeColor=#d79b00;" vertex="1" parent="1">
          <mxGeometry x="440" y="280" width="40" height="200" as="geometry" />
        </mxCell>
        <mxCell id="XRNj7C76H1mvE_7QBpQn-5" value="Core" style="rounded=0;whiteSpace=wrap;html=1;fillColor=#ffe6cc;strokeColor=#d79b00;" vertex="1" parent="1">
          <mxGeometry x="160" y="640" width="480" height="40" as="geometry" />
        </mxCell>
        <mxCell id="XRNj7C76H1mvE_7QBpQn-25" style="edgeStyle=orthogonalEdgeStyle;rounded=0;orthogonalLoop=1;jettySize=auto;html=1;exitX=0;exitY=0.5;exitDx=0;exitDy=0;entryX=1;entryY=0.5;entryDx=0;entryDy=0;" edge="1" parent="1" source="XRNj7C76H1mvE_7QBpQn-4" target="XRNj7C76H1mvE_7QBpQn-6">
          <mxGeometry relative="1" as="geometry" />
        </mxCell>
        <mxCell id="XRNj7C76H1mvE_7QBpQn-6" value="PaxChess" style="rounded=0;whiteSpace=wrap;html=1;fillColor=#cce5ff;strokeColor=#36393d;" vertex="1" parent="1">
          <mxGeometry x="160" y="440" width="120" height="30" as="geometry" />
        </mxCell>
        <mxCell id="XRNj7C76H1mvE_7QBpQn-29" style="edgeStyle=orthogonalEdgeStyle;rounded=0;orthogonalLoop=1;jettySize=auto;html=1;exitX=0;exitY=0.5;exitDx=0;exitDy=0;entryX=1;entryY=0.5;entryDx=0;entryDy=0;" edge="1" parent="1" source="XRNj7C76H1mvE_7QBpQn-4" target="XRNj7C76H1mvE_7QBpQn-7">
          <mxGeometry relative="1" as="geometry" />
        </mxCell>
        <mxCell id="XRNj7C76H1mvE_7QBpQn-7" value="PostgreSQL" style="rounded=0;whiteSpace=wrap;html=1;fillColor=#cce5ff;strokeColor=#36393d;" vertex="1" parent="1">
          <mxGeometry x="160" y="240" width="120" height="30" as="geometry" />
        </mxCell>
        <mxCell id="XRNj7C76H1mvE_7QBpQn-28" style="edgeStyle=orthogonalEdgeStyle;rounded=0;orthogonalLoop=1;jettySize=auto;html=1;exitX=0;exitY=0.5;exitDx=0;exitDy=0;entryX=1;entryY=0.5;entryDx=0;entryDy=0;" edge="1" parent="1" source="XRNj7C76H1mvE_7QBpQn-4" target="XRNj7C76H1mvE_7QBpQn-8">
          <mxGeometry relative="1" as="geometry" />
        </mxCell>
        <mxCell id="XRNj7C76H1mvE_7QBpQn-8" value="MongoDB" style="rounded=0;whiteSpace=wrap;html=1;fillColor=#cce5ff;strokeColor=#36393d;" vertex="1" parent="1">
          <mxGeometry x="160" y="290" width="120" height="30" as="geometry" />
        </mxCell>
        <mxCell id="XRNj7C76H1mvE_7QBpQn-30" style="edgeStyle=orthogonalEdgeStyle;rounded=0;orthogonalLoop=1;jettySize=auto;html=1;exitX=0;exitY=0.5;exitDx=0;exitDy=0;entryX=1;entryY=0.5;entryDx=0;entryDy=0;" edge="1" parent="1" source="XRNj7C76H1mvE_7QBpQn-4" target="XRNj7C76H1mvE_7QBpQn-9">
          <mxGeometry relative="1" as="geometry" />
        </mxCell>
        <mxCell id="XRNj7C76H1mvE_7QBpQn-9" value="MailKit" style="rounded=0;whiteSpace=wrap;html=1;fillColor=#cce5ff;strokeColor=#36393d;" vertex="1" parent="1">
          <mxGeometry x="160" y="390" width="120" height="30" as="geometry" />
        </mxCell>
        <mxCell id="XRNj7C76H1mvE_7QBpQn-27" style="edgeStyle=orthogonalEdgeStyle;rounded=0;orthogonalLoop=1;jettySize=auto;html=1;exitX=0;exitY=0.5;exitDx=0;exitDy=0;entryX=1;entryY=0.5;entryDx=0;entryDy=0;" edge="1" parent="1" source="XRNj7C76H1mvE_7QBpQn-4" target="XRNj7C76H1mvE_7QBpQn-10">
          <mxGeometry relative="1" as="geometry" />
        </mxCell>
        <mxCell id="XRNj7C76H1mvE_7QBpQn-10" value="RabbitMQ" style="rounded=0;whiteSpace=wrap;html=1;fillColor=#cce5ff;strokeColor=#36393d;" vertex="1" parent="1">
          <mxGeometry x="160" y="340" width="120" height="30" as="geometry" />
        </mxCell>
        <mxCell id="XRNj7C76H1mvE_7QBpQn-23" style="edgeStyle=orthogonalEdgeStyle;rounded=0;orthogonalLoop=1;jettySize=auto;html=1;exitX=0;exitY=0.5;exitDx=0;exitDy=0;entryX=1;entryY=0.5;entryDx=0;entryDy=0;" edge="1" parent="1" source="XRNj7C76H1mvE_7QBpQn-4" target="XRNj7C76H1mvE_7QBpQn-11">
          <mxGeometry relative="1" as="geometry" />
        </mxCell>
        <mxCell id="XRNj7C76H1mvE_7QBpQn-11" value="Quartz" style="rounded=0;whiteSpace=wrap;html=1;fillColor=#cce5ff;strokeColor=#36393d;" vertex="1" parent="1">
          <mxGeometry x="160" y="490" width="120" height="30" as="geometry" />
        </mxCell>
        <mxCell id="XRNj7C76H1mvE_7QBpQn-20" style="edgeStyle=orthogonalEdgeStyle;rounded=0;orthogonalLoop=1;jettySize=auto;html=1;exitX=0;exitY=0.5;exitDx=0;exitDy=0;entryX=1;entryY=0.901;entryDx=0;entryDy=0;entryPerimeter=0;" edge="1" parent="1" source="XRNj7C76H1mvE_7QBpQn-1" target="XRNj7C76H1mvE_7QBpQn-4">
          <mxGeometry relative="1" as="geometry" />
        </mxCell>
        <mxCell id="XRNj7C76H1mvE_7QBpQn-34" value="Providers" style="text;html=1;align=center;verticalAlign=middle;whiteSpace=wrap;rounded=0;" vertex="1" parent="1">
          <mxGeometry x="120" y="200" width="60" height="30" as="geometry" />
        </mxCell>
        <mxCell id="XRNj7C76H1mvE_7QBpQn-36" value="Service" style="text;html=1;align=center;verticalAlign=middle;whiteSpace=wrap;rounded=0;" vertex="1" parent="1">
          <mxGeometry x="400" y="200" width="50" height="30" as="geometry" />
        </mxCell>
        <mxCell id="XRNj7C76H1mvE_7QBpQn-39" value="Shared" style="text;html=1;align=center;verticalAlign=middle;whiteSpace=wrap;rounded=0;" vertex="1" parent="1">
          <mxGeometry x="120" y="600" width="50" height="30" as="geometry" />
        </mxCell>
        <mxCell id="XRNj7C76H1mvE_7QBpQn-40" style="edgeStyle=orthogonalEdgeStyle;rounded=0;orthogonalLoop=1;jettySize=auto;html=1;exitX=0.5;exitY=1;exitDx=0;exitDy=0;entryX=0.179;entryY=0;entryDx=0;entryDy=0;entryPerimeter=0;" edge="1" parent="1" source="XRNj7C76H1mvE_7QBpQn-33" target="XRNj7C76H1mvE_7QBpQn-37">
          <mxGeometry relative="1" as="geometry" />
        </mxCell>
      </root>
    </mxGraphModel>
  </diagram>
</mxfile>
